<mxfile host="65bd71144e">
    <diagram id="WUnF3oP5-qmSHGCMxyB6" name="Page-1">
        <mxGraphModel dx="1229" dy="666" grid="1" gridSize="10" guides="1" tooltips="1" connect="1" arrows="1" fold="1" page="1" pageScale="1" pageWidth="850" pageHeight="1100" math="0" shadow="0">
            <root>
                <mxCell id="0"/>
                <mxCell id="1" parent="0"/>
                <mxCell id="140" value="Persendirian / Sumbangan" style="rounded=1;whiteSpace=wrap;html=1;fillColor=#FFFFFF;" vertex="1" parent="1">
                    <mxGeometry x="-290" y="355" width="170" height="20" as="geometry"/>
                </mxCell>
                <mxCell id="2" value="AduanPenyelengaraanKVKS" style="text;html=1;strokeColor=none;fillColor=none;align=center;verticalAlign=middle;whiteSpace=wrap;rounded=0;" parent="1" vertex="1">
                    <mxGeometry x="360" y="40" width="170" height="40" as="geometry"/>
                </mxCell>
                <mxCell id="3" value="aduan_kerosakkan_komputer" style="shape=table;startSize=30;container=1;collapsible=1;childLayout=tableLayout;fixedRows=1;rowLines=0;fontStyle=1;align=center;resizeLast=1;" parent="1" vertex="1">
                    <mxGeometry x="-81" y="170" width="261" height="450" as="geometry"/>
                </mxCell>
                <mxCell id="4" value="" style="shape=tableRow;horizontal=0;startSize=0;swimlaneHead=0;swimlaneBody=0;fillColor=none;collapsible=0;dropTarget=0;points=[[0,0.5],[1,0.5]];portConstraint=eastwest;top=0;left=0;right=0;bottom=1;" parent="3" vertex="1">
                    <mxGeometry y="30" width="261" height="30" as="geometry"/>
                </mxCell>
                <mxCell id="5" value="PK" style="shape=partialRectangle;connectable=0;fillColor=none;top=0;left=0;bottom=0;right=0;fontStyle=1;overflow=hidden;" parent="4" vertex="1">
                    <mxGeometry width="30" height="30" as="geometry">
                        <mxRectangle width="30" height="30" as="alternateBounds"/>
                    </mxGeometry>
                </mxCell>
                <mxCell id="6" value="id_aduan" style="shape=partialRectangle;connectable=0;fillColor=none;top=0;left=0;bottom=0;right=0;align=left;spacingLeft=6;fontStyle=5;overflow=hidden;" parent="4" vertex="1">
                    <mxGeometry x="30" width="231" height="30" as="geometry">
                        <mxRectangle width="231" height="30" as="alternateBounds"/>
                    </mxGeometry>
                </mxCell>
                <mxCell id="7" value="" style="shape=tableRow;horizontal=0;startSize=0;swimlaneHead=0;swimlaneBody=0;fillColor=#FFFF00;collapsible=0;dropTarget=0;points=[[0,0.5],[1,0.5]];portConstraint=eastwest;top=0;left=0;right=0;bottom=0;" parent="3" vertex="1">
                    <mxGeometry y="60" width="261" height="30" as="geometry"/>
                </mxCell>
                <mxCell id="8" value="FK" style="shape=partialRectangle;connectable=0;fillColor=#FFFF00;top=0;left=0;bottom=0;right=0;editable=1;overflow=hidden;" parent="7" vertex="1">
                    <mxGeometry width="30" height="30" as="geometry">
                        <mxRectangle width="30" height="30" as="alternateBounds"/>
                    </mxGeometry>
                </mxCell>
                <mxCell id="9" value="id_pensyarah" style="shape=partialRectangle;connectable=0;fillColor=#FFFF00;top=0;left=0;bottom=0;right=0;align=left;spacingLeft=6;overflow=hidden;" parent="7" vertex="1">
                    <mxGeometry x="30" width="231" height="30" as="geometry">
                        <mxRectangle width="231" height="30" as="alternateBounds"/>
                    </mxGeometry>
                </mxCell>
                <mxCell id="81" value="" style="shape=tableRow;horizontal=0;startSize=0;swimlaneHead=0;swimlaneBody=0;fillColor=#006600;collapsible=0;dropTarget=0;points=[[0,0.5],[1,0.5]];portConstraint=eastwest;top=0;left=0;right=0;bottom=0;" parent="3" vertex="1">
                    <mxGeometry y="90" width="261" height="30" as="geometry"/>
                </mxCell>
                <mxCell id="82" value="" style="shape=partialRectangle;connectable=0;fillColor=#006600;top=0;left=0;bottom=0;right=0;editable=1;overflow=hidden;" parent="81" vertex="1">
                    <mxGeometry width="30" height="30" as="geometry">
                        <mxRectangle width="30" height="30" as="alternateBounds"/>
                    </mxGeometry>
                </mxCell>
                <mxCell id="83" value="waktu_bengkel_kosong" style="shape=partialRectangle;connectable=0;fillColor=#006600;top=0;left=0;bottom=0;right=0;align=left;spacingLeft=6;overflow=hidden;strokeColor=#FFFFFF;" parent="81" vertex="1">
                    <mxGeometry x="30" width="231" height="30" as="geometry">
                        <mxRectangle width="231" height="30" as="alternateBounds"/>
                    </mxGeometry>
                </mxCell>
                <mxCell id="84" value="" style="shape=tableRow;horizontal=0;startSize=0;swimlaneHead=0;swimlaneBody=0;fillColor=#006600;collapsible=0;dropTarget=0;points=[[0,0.5],[1,0.5]];portConstraint=eastwest;top=0;left=0;right=0;bottom=0;" parent="3" vertex="1">
                    <mxGeometry y="120" width="261" height="30" as="geometry"/>
                </mxCell>
                <mxCell id="85" value="FK" style="shape=partialRectangle;connectable=0;fillColor=#006600;top=0;left=0;bottom=0;right=0;editable=1;overflow=hidden;" parent="84" vertex="1">
                    <mxGeometry width="30" height="30" as="geometry">
                        <mxRectangle width="30" height="30" as="alternateBounds"/>
                    </mxGeometry>
                </mxCell>
                <mxCell id="86" value="id_lokasi" style="shape=partialRectangle;connectable=0;fillColor=#006600;top=0;left=0;bottom=0;right=0;align=left;spacingLeft=6;overflow=hidden;" parent="84" vertex="1">
                    <mxGeometry x="30" width="231" height="30" as="geometry">
                        <mxRectangle width="231" height="30" as="alternateBounds"/>
                    </mxGeometry>
                </mxCell>
                <mxCell id="10" value="" style="shape=tableRow;horizontal=0;startSize=0;swimlaneHead=0;swimlaneBody=0;fillColor=#33FF33;collapsible=0;dropTarget=0;points=[[0,0.5],[1,0.5]];portConstraint=eastwest;top=0;left=0;right=0;bottom=0;" parent="3" vertex="1">
                    <mxGeometry y="150" width="261" height="30" as="geometry"/>
                </mxCell>
                <mxCell id="11" value="" style="shape=partialRectangle;connectable=0;fillColor=#33FF33;top=0;left=0;bottom=0;right=0;editable=1;overflow=hidden;" parent="10" vertex="1">
                    <mxGeometry width="30" height="30" as="geometry">
                        <mxRectangle width="30" height="30" as="alternateBounds"/>
                    </mxGeometry>
                </mxCell>
                <mxCell id="12" value="jenis_aset" style="shape=partialRectangle;connectable=0;fillColor=#33FF33;top=0;left=0;bottom=0;right=0;align=left;spacingLeft=6;overflow=hidden;" parent="10" vertex="1">
                    <mxGeometry x="30" width="231" height="30" as="geometry">
                        <mxRectangle width="231" height="30" as="alternateBounds"/>
                    </mxGeometry>
                </mxCell>
                <mxCell id="137" value="" style="shape=tableRow;horizontal=0;startSize=0;swimlaneHead=0;swimlaneBody=0;fillColor=#33FF33;collapsible=0;dropTarget=0;points=[[0,0.5],[1,0.5]];portConstraint=eastwest;top=0;left=0;right=0;bottom=0;" vertex="1" parent="3">
                    <mxGeometry y="180" width="261" height="30" as="geometry"/>
                </mxCell>
                <mxCell id="138" value="" style="shape=partialRectangle;connectable=0;fillColor=#33FF33;top=0;left=0;bottom=0;right=0;editable=1;overflow=hidden;" vertex="1" parent="137">
                    <mxGeometry width="30" height="30" as="geometry">
                        <mxRectangle width="30" height="30" as="alternateBounds"/>
                    </mxGeometry>
                </mxCell>
                <mxCell id="139" value="jenis_kepunyaan_asset" style="shape=partialRectangle;connectable=0;fillColor=#33FF33;top=0;left=0;bottom=0;right=0;align=left;spacingLeft=6;overflow=hidden;" vertex="1" parent="137">
                    <mxGeometry x="30" width="231" height="30" as="geometry">
                        <mxRectangle width="231" height="30" as="alternateBounds"/>
                    </mxGeometry>
                </mxCell>
                <mxCell id="13" value="" style="shape=tableRow;horizontal=0;startSize=0;swimlaneHead=0;swimlaneBody=0;fillColor=#33FF33;collapsible=0;dropTarget=0;points=[[0,0.5],[1,0.5]];portConstraint=eastwest;top=0;left=0;right=0;bottom=0;" parent="3" vertex="1">
                    <mxGeometry y="210" width="261" height="30" as="geometry"/>
                </mxCell>
                <mxCell id="14" value="" style="shape=partialRectangle;connectable=0;fillColor=#33FF33;top=0;left=0;bottom=0;right=0;editable=1;overflow=hidden;" parent="13" vertex="1">
                    <mxGeometry width="30" height="30" as="geometry">
                        <mxRectangle width="30" height="30" as="alternateBounds"/>
                    </mxGeometry>
                </mxCell>
                <mxCell id="15" value="nombor_siri_pendaftaran_asset" style="shape=partialRectangle;connectable=0;fillColor=#33FF33;top=0;left=0;bottom=0;right=0;align=left;spacingLeft=6;overflow=hidden;" parent="13" vertex="1">
                    <mxGeometry x="30" width="231" height="30" as="geometry">
                        <mxRectangle width="231" height="30" as="alternateBounds"/>
                    </mxGeometry>
                </mxCell>
                <mxCell id="43" value="" style="shape=tableRow;horizontal=0;startSize=0;swimlaneHead=0;swimlaneBody=0;fillColor=#33FF33;collapsible=0;dropTarget=0;points=[[0,0.5],[1,0.5]];portConstraint=eastwest;top=0;left=0;right=0;bottom=0;" parent="3" vertex="1">
                    <mxGeometry y="240" width="261" height="30" as="geometry"/>
                </mxCell>
                <mxCell id="44" value="" style="shape=partialRectangle;connectable=0;fillColor=#33FF33;top=0;left=0;bottom=0;right=0;editable=1;overflow=hidden;" parent="43" vertex="1">
                    <mxGeometry width="30" height="30" as="geometry">
                        <mxRectangle width="30" height="30" as="alternateBounds"/>
                    </mxGeometry>
                </mxCell>
                <mxCell id="45" value="tarikh_kerosakkan" style="shape=partialRectangle;connectable=0;fillColor=#33FF33;top=0;left=0;bottom=0;right=0;align=left;spacingLeft=6;overflow=hidden;" parent="43" vertex="1">
                    <mxGeometry x="30" width="231" height="30" as="geometry">
                        <mxRectangle width="231" height="30" as="alternateBounds"/>
                    </mxGeometry>
                </mxCell>
                <mxCell id="46" value="" style="shape=tableRow;horizontal=0;startSize=0;swimlaneHead=0;swimlaneBody=0;fillColor=#33FF33;collapsible=0;dropTarget=0;points=[[0,0.5],[1,0.5]];portConstraint=eastwest;top=0;left=0;right=0;bottom=0;" parent="3" vertex="1">
                    <mxGeometry y="270" width="261" height="30" as="geometry"/>
                </mxCell>
                <mxCell id="47" value="" style="shape=partialRectangle;connectable=0;fillColor=#33FF33;top=0;left=0;bottom=0;right=0;editable=1;overflow=hidden;" parent="46" vertex="1">
                    <mxGeometry width="30" height="30" as="geometry">
                        <mxRectangle width="30" height="30" as="alternateBounds"/>
                    </mxGeometry>
                </mxCell>
                <mxCell id="48" value="perihal_kerosakkan" style="shape=partialRectangle;connectable=0;fillColor=#33FF33;top=0;left=0;bottom=0;right=0;align=left;spacingLeft=6;overflow=hidden;" parent="46" vertex="1">
                    <mxGeometry x="30" width="231" height="30" as="geometry">
                        <mxRectangle width="231" height="30" as="alternateBounds"/>
                    </mxGeometry>
                </mxCell>
                <mxCell id="97" value="" style="shape=tableRow;horizontal=0;startSize=0;swimlaneHead=0;swimlaneBody=0;fillColor=#FF0080;collapsible=0;dropTarget=0;points=[[0,0.5],[1,0.5]];portConstraint=eastwest;top=0;left=0;right=0;bottom=0;" vertex="1" parent="3">
                    <mxGeometry y="300" width="261" height="30" as="geometry"/>
                </mxCell>
                <mxCell id="98" value="FK" style="shape=partialRectangle;connectable=0;fillColor=#FF0080;top=0;left=0;bottom=0;right=0;editable=1;overflow=hidden;" vertex="1" parent="97">
                    <mxGeometry width="30" height="30" as="geometry">
                        <mxRectangle width="30" height="30" as="alternateBounds"/>
                    </mxGeometry>
                </mxCell>
                <mxCell id="99" value="id_admin" style="shape=partialRectangle;connectable=0;fillColor=#FF0080;top=0;left=0;bottom=0;right=0;align=left;spacingLeft=6;overflow=hidden;" vertex="1" parent="97">
                    <mxGeometry x="30" width="231" height="30" as="geometry">
                        <mxRectangle width="231" height="30" as="alternateBounds"/>
                    </mxGeometry>
                </mxCell>
                <mxCell id="49" value="" style="shape=tableRow;horizontal=0;startSize=0;swimlaneHead=0;swimlaneBody=0;fillColor=#00FFFF;collapsible=0;dropTarget=0;points=[[0,0.5],[1,0.5]];portConstraint=eastwest;top=0;left=0;right=0;bottom=0;" parent="3" vertex="1">
                    <mxGeometry y="330" width="261" height="30" as="geometry"/>
                </mxCell>
                <mxCell id="50" value="" style="shape=partialRectangle;connectable=0;fillColor=#00FFFF;top=0;left=0;bottom=0;right=0;editable=1;overflow=hidden;" parent="49" vertex="1">
                    <mxGeometry width="30" height="30" as="geometry">
                        <mxRectangle width="30" height="30" as="alternateBounds"/>
                    </mxGeometry>
                </mxCell>
                <mxCell id="51" value="kos_penyelengaraan_terdahulu" style="shape=partialRectangle;connectable=0;fillColor=#00FFFF;top=0;left=0;bottom=0;right=0;align=left;spacingLeft=6;overflow=hidden;" parent="49" vertex="1">
                    <mxGeometry x="30" width="231" height="30" as="geometry">
                        <mxRectangle width="231" height="30" as="alternateBounds"/>
                    </mxGeometry>
                </mxCell>
                <mxCell id="52" value="" style="shape=tableRow;horizontal=0;startSize=0;swimlaneHead=0;swimlaneBody=0;fillColor=#00FFFF;collapsible=0;dropTarget=0;points=[[0,0.5],[1,0.5]];portConstraint=eastwest;top=0;left=0;right=0;bottom=0;" parent="3" vertex="1">
                    <mxGeometry y="360" width="261" height="30" as="geometry"/>
                </mxCell>
                <mxCell id="53" value="" style="shape=partialRectangle;connectable=0;fillColor=#00FFFF;top=0;left=0;bottom=0;right=0;editable=1;overflow=hidden;" parent="52" vertex="1">
                    <mxGeometry width="30" height="30" as="geometry">
                        <mxRectangle width="30" height="30" as="alternateBounds"/>
                    </mxGeometry>
                </mxCell>
                <mxCell id="54" value="kos_penyelengaraan_anggaran" style="shape=partialRectangle;connectable=0;fillColor=#00FFFF;top=0;left=0;bottom=0;right=0;align=left;spacingLeft=6;overflow=hidden;" parent="52" vertex="1">
                    <mxGeometry x="30" width="231" height="30" as="geometry">
                        <mxRectangle width="231" height="30" as="alternateBounds"/>
                    </mxGeometry>
                </mxCell>
                <mxCell id="55" value="" style="shape=tableRow;horizontal=0;startSize=0;swimlaneHead=0;swimlaneBody=0;fillColor=#00FFFF;collapsible=0;dropTarget=0;points=[[0,0.5],[1,0.5]];portConstraint=eastwest;top=0;left=0;right=0;bottom=0;" parent="3" vertex="1">
                    <mxGeometry y="390" width="261" height="30" as="geometry"/>
                </mxCell>
                <mxCell id="56" value="" style="shape=partialRectangle;connectable=0;fillColor=#00FFFF;top=0;left=0;bottom=0;right=0;editable=1;overflow=hidden;" parent="55" vertex="1">
                    <mxGeometry width="30" height="30" as="geometry">
                        <mxRectangle width="30" height="30" as="alternateBounds"/>
                    </mxGeometry>
                </mxCell>
                <mxCell id="57" value="ulasan_aduan" style="shape=partialRectangle;connectable=0;fillColor=#00FFFF;top=0;left=0;bottom=0;right=0;align=left;spacingLeft=6;overflow=hidden;" parent="55" vertex="1">
                    <mxGeometry x="30" width="231" height="30" as="geometry">
                        <mxRectangle width="231" height="30" as="alternateBounds"/>
                    </mxGeometry>
                </mxCell>
                <mxCell id="73" value="" style="shape=tableRow;horizontal=0;startSize=0;swimlaneHead=0;swimlaneBody=0;fillColor=#FF0000;collapsible=0;dropTarget=0;points=[[0,0.5],[1,0.5]];portConstraint=eastwest;top=0;left=0;right=0;bottom=0;" parent="3" vertex="1">
                    <mxGeometry y="420" width="261" height="30" as="geometry"/>
                </mxCell>
                <mxCell id="74" value="" style="shape=partialRectangle;connectable=0;fillColor=#FF0000;top=0;left=0;bottom=0;right=0;editable=1;overflow=hidden;" parent="73" vertex="1">
                    <mxGeometry width="30" height="30" as="geometry">
                        <mxRectangle width="30" height="30" as="alternateBounds"/>
                    </mxGeometry>
                </mxCell>
                <mxCell id="75" value="status_aduan" style="shape=partialRectangle;connectable=0;fillColor=#FF0000;top=0;left=0;bottom=0;right=0;align=left;spacingLeft=6;overflow=hidden;" parent="73" vertex="1">
                    <mxGeometry x="30" width="231" height="30" as="geometry">
                        <mxRectangle width="231" height="30" as="alternateBounds"/>
                    </mxGeometry>
                </mxCell>
                <mxCell id="16" value="pensyarah" style="shape=table;startSize=30;container=1;collapsible=1;childLayout=tableLayout;fixedRows=1;rowLines=0;fontStyle=1;align=center;resizeLast=1;" parent="1" vertex="1">
                    <mxGeometry x="280" y="90" width="180" height="140" as="geometry"/>
                </mxCell>
                <mxCell id="17" value="" style="shape=tableRow;horizontal=0;startSize=0;swimlaneHead=0;swimlaneBody=0;fillColor=none;collapsible=0;dropTarget=0;points=[[0,0.5],[1,0.5]];portConstraint=eastwest;top=0;left=0;right=0;bottom=1;" parent="16" vertex="1">
                    <mxGeometry y="30" width="180" height="30" as="geometry"/>
                </mxCell>
                <mxCell id="18" value="PK" style="shape=partialRectangle;connectable=0;fillColor=none;top=0;left=0;bottom=0;right=0;fontStyle=1;overflow=hidden;" parent="17" vertex="1">
                    <mxGeometry width="30" height="30" as="geometry">
                        <mxRectangle width="30" height="30" as="alternateBounds"/>
                    </mxGeometry>
                </mxCell>
                <mxCell id="19" value="id_pensyarah" style="shape=partialRectangle;connectable=0;fillColor=none;top=0;left=0;bottom=0;right=0;align=left;spacingLeft=6;fontStyle=5;overflow=hidden;" parent="17" vertex="1">
                    <mxGeometry x="30" width="150" height="30" as="geometry">
                        <mxRectangle width="150" height="30" as="alternateBounds"/>
                    </mxGeometry>
                </mxCell>
                <mxCell id="20" value="" style="shape=tableRow;horizontal=0;startSize=0;swimlaneHead=0;swimlaneBody=0;fillColor=none;collapsible=0;dropTarget=0;points=[[0,0.5],[1,0.5]];portConstraint=eastwest;top=0;left=0;right=0;bottom=0;" parent="16" vertex="1">
                    <mxGeometry y="60" width="180" height="30" as="geometry"/>
                </mxCell>
                <mxCell id="21" value="" style="shape=partialRectangle;connectable=0;fillColor=none;top=0;left=0;bottom=0;right=0;editable=1;overflow=hidden;" parent="20" vertex="1">
                    <mxGeometry width="30" height="30" as="geometry">
                        <mxRectangle width="30" height="30" as="alternateBounds"/>
                    </mxGeometry>
                </mxCell>
                <mxCell id="22" value="nama_pensyarah" style="shape=partialRectangle;connectable=0;fillColor=none;top=0;left=0;bottom=0;right=0;align=left;spacingLeft=6;overflow=hidden;" parent="20" vertex="1">
                    <mxGeometry x="30" width="150" height="30" as="geometry">
                        <mxRectangle width="150" height="30" as="alternateBounds"/>
                    </mxGeometry>
                </mxCell>
                <mxCell id="23" value="" style="shape=tableRow;horizontal=0;startSize=0;swimlaneHead=0;swimlaneBody=0;fillColor=none;collapsible=0;dropTarget=0;points=[[0,0.5],[1,0.5]];portConstraint=eastwest;top=0;left=0;right=0;bottom=0;" parent="16" vertex="1">
                    <mxGeometry y="90" width="180" height="20" as="geometry"/>
                </mxCell>
                <mxCell id="24" value="" style="shape=partialRectangle;connectable=0;fillColor=none;top=0;left=0;bottom=0;right=0;editable=1;overflow=hidden;" parent="23" vertex="1">
                    <mxGeometry width="30" height="20" as="geometry">
                        <mxRectangle width="30" height="20" as="alternateBounds"/>
                    </mxGeometry>
                </mxCell>
                <mxCell id="25" value="jabatan_pensyarah" style="shape=partialRectangle;connectable=0;fillColor=none;top=0;left=0;bottom=0;right=0;align=left;spacingLeft=6;overflow=hidden;" parent="23" vertex="1">
                    <mxGeometry x="30" width="150" height="20" as="geometry">
                        <mxRectangle width="150" height="20" as="alternateBounds"/>
                    </mxGeometry>
                </mxCell>
                <mxCell id="26" value="" style="shape=tableRow;horizontal=0;startSize=0;swimlaneHead=0;swimlaneBody=0;fillColor=none;collapsible=0;dropTarget=0;points=[[0,0.5],[1,0.5]];portConstraint=eastwest;top=0;left=0;right=0;bottom=0;" parent="16" vertex="1">
                    <mxGeometry y="110" width="180" height="30" as="geometry"/>
                </mxCell>
                <mxCell id="27" value="" style="shape=partialRectangle;connectable=0;fillColor=none;top=0;left=0;bottom=0;right=0;editable=1;overflow=hidden;" parent="26" vertex="1">
                    <mxGeometry width="30" height="30" as="geometry">
                        <mxRectangle width="30" height="30" as="alternateBounds"/>
                    </mxGeometry>
                </mxCell>
                <mxCell id="28" value="status_pensyarah" style="shape=partialRectangle;connectable=0;fillColor=none;top=0;left=0;bottom=0;right=0;align=left;spacingLeft=6;overflow=hidden;" parent="26" vertex="1">
                    <mxGeometry x="30" width="150" height="30" as="geometry">
                        <mxRectangle width="150" height="30" as="alternateBounds"/>
                    </mxGeometry>
                </mxCell>
                <mxCell id="77" style="edgeStyle=none;html=1;exitX=1;exitY=0.5;exitDx=0;exitDy=0;entryX=0;entryY=0.5;entryDx=0;entryDy=0;" parent="1" source="7" target="17" edge="1">
                    <mxGeometry relative="1" as="geometry">
                        <Array as="points">
                            <mxPoint x="250" y="245"/>
                            <mxPoint x="250" y="215"/>
                            <mxPoint x="250" y="135"/>
                        </Array>
                    </mxGeometry>
                </mxCell>
                <mxCell id="100" value="admin" style="shape=table;startSize=30;container=1;collapsible=1;childLayout=tableLayout;fixedRows=1;rowLines=0;fontStyle=1;align=center;resizeLast=1;fillColor=#FFFFFF;" vertex="1" parent="1">
                    <mxGeometry x="280" y="510" width="180" height="150" as="geometry"/>
                </mxCell>
                <mxCell id="101" value="" style="shape=tableRow;horizontal=0;startSize=0;swimlaneHead=0;swimlaneBody=0;fillColor=none;collapsible=0;dropTarget=0;points=[[0,0.5],[1,0.5]];portConstraint=eastwest;top=0;left=0;right=0;bottom=1;" vertex="1" parent="100">
                    <mxGeometry y="30" width="180" height="30" as="geometry"/>
                </mxCell>
                <mxCell id="102" value="PK" style="shape=partialRectangle;connectable=0;fillColor=none;top=0;left=0;bottom=0;right=0;fontStyle=1;overflow=hidden;" vertex="1" parent="101">
                    <mxGeometry width="30" height="30" as="geometry">
                        <mxRectangle width="30" height="30" as="alternateBounds"/>
                    </mxGeometry>
                </mxCell>
                <mxCell id="103" value="id_admin" style="shape=partialRectangle;connectable=0;fillColor=none;top=0;left=0;bottom=0;right=0;align=left;spacingLeft=6;fontStyle=5;overflow=hidden;" vertex="1" parent="101">
                    <mxGeometry x="30" width="150" height="30" as="geometry">
                        <mxRectangle width="150" height="30" as="alternateBounds"/>
                    </mxGeometry>
                </mxCell>
                <mxCell id="104" value="" style="shape=tableRow;horizontal=0;startSize=0;swimlaneHead=0;swimlaneBody=0;fillColor=none;collapsible=0;dropTarget=0;points=[[0,0.5],[1,0.5]];portConstraint=eastwest;top=0;left=0;right=0;bottom=0;" vertex="1" parent="100">
                    <mxGeometry y="60" width="180" height="30" as="geometry"/>
                </mxCell>
                <mxCell id="105" value="" style="shape=partialRectangle;connectable=0;fillColor=none;top=0;left=0;bottom=0;right=0;editable=1;overflow=hidden;" vertex="1" parent="104">
                    <mxGeometry width="30" height="30" as="geometry">
                        <mxRectangle width="30" height="30" as="alternateBounds"/>
                    </mxGeometry>
                </mxCell>
                <mxCell id="106" value="nama_admin" style="shape=partialRectangle;connectable=0;fillColor=none;top=0;left=0;bottom=0;right=0;align=left;spacingLeft=6;overflow=hidden;" vertex="1" parent="104">
                    <mxGeometry x="30" width="150" height="30" as="geometry">
                        <mxRectangle width="150" height="30" as="alternateBounds"/>
                    </mxGeometry>
                </mxCell>
                <mxCell id="107" value="" style="shape=tableRow;horizontal=0;startSize=0;swimlaneHead=0;swimlaneBody=0;fillColor=none;collapsible=0;dropTarget=0;points=[[0,0.5],[1,0.5]];portConstraint=eastwest;top=0;left=0;right=0;bottom=0;" vertex="1" parent="100">
                    <mxGeometry y="90" width="180" height="30" as="geometry"/>
                </mxCell>
                <mxCell id="108" value="" style="shape=partialRectangle;connectable=0;fillColor=none;top=0;left=0;bottom=0;right=0;editable=1;overflow=hidden;" vertex="1" parent="107">
                    <mxGeometry width="30" height="30" as="geometry">
                        <mxRectangle width="30" height="30" as="alternateBounds"/>
                    </mxGeometry>
                </mxCell>
                <mxCell id="109" value="jawatan_admin" style="shape=partialRectangle;connectable=0;fillColor=none;top=0;left=0;bottom=0;right=0;align=left;spacingLeft=6;overflow=hidden;" vertex="1" parent="107">
                    <mxGeometry x="30" width="150" height="30" as="geometry">
                        <mxRectangle width="150" height="30" as="alternateBounds"/>
                    </mxGeometry>
                </mxCell>
                <mxCell id="110" value="" style="shape=tableRow;horizontal=0;startSize=0;swimlaneHead=0;swimlaneBody=0;fillColor=none;collapsible=0;dropTarget=0;points=[[0,0.5],[1,0.5]];portConstraint=eastwest;top=0;left=0;right=0;bottom=0;" vertex="1" parent="100">
                    <mxGeometry y="120" width="180" height="30" as="geometry"/>
                </mxCell>
                <mxCell id="111" value="" style="shape=partialRectangle;connectable=0;fillColor=none;top=0;left=0;bottom=0;right=0;editable=1;overflow=hidden;" vertex="1" parent="110">
                    <mxGeometry width="30" height="30" as="geometry">
                        <mxRectangle width="30" height="30" as="alternateBounds"/>
                    </mxGeometry>
                </mxCell>
                <mxCell id="112" value="status_admin" style="shape=partialRectangle;connectable=0;fillColor=none;top=0;left=0;bottom=0;right=0;align=left;spacingLeft=6;overflow=hidden;" vertex="1" parent="110">
                    <mxGeometry x="30" width="150" height="30" as="geometry">
                        <mxRectangle width="150" height="30" as="alternateBounds"/>
                    </mxGeometry>
                </mxCell>
                <mxCell id="113" style="edgeStyle=none;html=1;exitX=1;exitY=0.5;exitDx=0;exitDy=0;entryX=0;entryY=0.5;entryDx=0;entryDy=0;" edge="1" parent="1" source="97" target="101">
                    <mxGeometry relative="1" as="geometry">
                        <Array as="points">
                            <mxPoint x="240" y="485"/>
                            <mxPoint x="240" y="515"/>
                            <mxPoint x="240" y="555"/>
                        </Array>
                    </mxGeometry>
                </mxCell>
                <mxCell id="119" value="lokasi" style="shape=table;startSize=30;container=1;collapsible=1;childLayout=tableLayout;fixedRows=1;rowLines=0;fontStyle=1;align=center;resizeLast=1;fillColor=#FFFFFF;" vertex="1" parent="1">
                    <mxGeometry x="280" y="260" width="180" height="180" as="geometry"/>
                </mxCell>
                <mxCell id="120" value="" style="shape=tableRow;horizontal=0;startSize=0;swimlaneHead=0;swimlaneBody=0;fillColor=none;collapsible=0;dropTarget=0;points=[[0,0.5],[1,0.5]];portConstraint=eastwest;top=0;left=0;right=0;bottom=1;" vertex="1" parent="119">
                    <mxGeometry y="30" width="180" height="30" as="geometry"/>
                </mxCell>
                <mxCell id="121" value="PK" style="shape=partialRectangle;connectable=0;fillColor=none;top=0;left=0;bottom=0;right=0;fontStyle=1;overflow=hidden;" vertex="1" parent="120">
                    <mxGeometry width="30" height="30" as="geometry">
                        <mxRectangle width="30" height="30" as="alternateBounds"/>
                    </mxGeometry>
                </mxCell>
                <mxCell id="122" value="id_lokasi" style="shape=partialRectangle;connectable=0;fillColor=none;top=0;left=0;bottom=0;right=0;align=left;spacingLeft=6;fontStyle=5;overflow=hidden;" vertex="1" parent="120">
                    <mxGeometry x="30" width="150" height="30" as="geometry">
                        <mxRectangle width="150" height="30" as="alternateBounds"/>
                    </mxGeometry>
                </mxCell>
                <mxCell id="123" value="" style="shape=tableRow;horizontal=0;startSize=0;swimlaneHead=0;swimlaneBody=0;fillColor=none;collapsible=0;dropTarget=0;points=[[0,0.5],[1,0.5]];portConstraint=eastwest;top=0;left=0;right=0;bottom=0;" vertex="1" parent="119">
                    <mxGeometry y="60" width="180" height="30" as="geometry"/>
                </mxCell>
                <mxCell id="124" value="" style="shape=partialRectangle;connectable=0;fillColor=none;top=0;left=0;bottom=0;right=0;editable=1;overflow=hidden;" vertex="1" parent="123">
                    <mxGeometry width="30" height="30" as="geometry">
                        <mxRectangle width="30" height="30" as="alternateBounds"/>
                    </mxGeometry>
                </mxCell>
                <mxCell id="125" value="nama_lokasi" style="shape=partialRectangle;connectable=0;fillColor=none;top=0;left=0;bottom=0;right=0;align=left;spacingLeft=6;overflow=hidden;" vertex="1" parent="123">
                    <mxGeometry x="30" width="150" height="30" as="geometry">
                        <mxRectangle width="150" height="30" as="alternateBounds"/>
                    </mxGeometry>
                </mxCell>
                <mxCell id="126" value="" style="shape=tableRow;horizontal=0;startSize=0;swimlaneHead=0;swimlaneBody=0;fillColor=none;collapsible=0;dropTarget=0;points=[[0,0.5],[1,0.5]];portConstraint=eastwest;top=0;left=0;right=0;bottom=0;" vertex="1" parent="119">
                    <mxGeometry y="90" width="180" height="30" as="geometry"/>
                </mxCell>
                <mxCell id="127" value="" style="shape=partialRectangle;connectable=0;fillColor=none;top=0;left=0;bottom=0;right=0;editable=1;overflow=hidden;" vertex="1" parent="126">
                    <mxGeometry width="30" height="30" as="geometry">
                        <mxRectangle width="30" height="30" as="alternateBounds"/>
                    </mxGeometry>
                </mxCell>
                <mxCell id="128" value="pelan_lantai_img" style="shape=partialRectangle;connectable=0;fillColor=none;top=0;left=0;bottom=0;right=0;align=left;spacingLeft=6;overflow=hidden;" vertex="1" parent="126">
                    <mxGeometry x="30" width="150" height="30" as="geometry">
                        <mxRectangle width="150" height="30" as="alternateBounds"/>
                    </mxGeometry>
                </mxCell>
                <mxCell id="133" value="" style="shape=tableRow;horizontal=0;startSize=0;swimlaneHead=0;swimlaneBody=0;fillColor=none;collapsible=0;dropTarget=0;points=[[0,0.5],[1,0.5]];portConstraint=eastwest;top=0;left=0;right=0;bottom=0;" vertex="1" parent="119">
                    <mxGeometry y="120" width="180" height="30" as="geometry"/>
                </mxCell>
                <mxCell id="134" value="" style="shape=partialRectangle;connectable=0;fillColor=none;top=0;left=0;bottom=0;right=0;editable=1;overflow=hidden;" vertex="1" parent="133">
                    <mxGeometry width="30" height="30" as="geometry">
                        <mxRectangle width="30" height="30" as="alternateBounds"/>
                    </mxGeometry>
                </mxCell>
                <mxCell id="135" value="pelan_lantai_section" style="shape=partialRectangle;connectable=0;fillColor=none;top=0;left=0;bottom=0;right=0;align=left;spacingLeft=6;overflow=hidden;" vertex="1" parent="133">
                    <mxGeometry x="30" width="150" height="30" as="geometry">
                        <mxRectangle width="150" height="30" as="alternateBounds"/>
                    </mxGeometry>
                </mxCell>
                <mxCell id="129" value="" style="shape=tableRow;horizontal=0;startSize=0;swimlaneHead=0;swimlaneBody=0;fillColor=none;collapsible=0;dropTarget=0;points=[[0,0.5],[1,0.5]];portConstraint=eastwest;top=0;left=0;right=0;bottom=0;" vertex="1" parent="119">
                    <mxGeometry y="150" width="180" height="30" as="geometry"/>
                </mxCell>
                <mxCell id="130" value="" style="shape=partialRectangle;connectable=0;fillColor=none;top=0;left=0;bottom=0;right=0;editable=1;overflow=hidden;" vertex="1" parent="129">
                    <mxGeometry width="30" height="30" as="geometry">
                        <mxRectangle width="30" height="30" as="alternateBounds"/>
                    </mxGeometry>
                </mxCell>
                <mxCell id="131" value="status_lokasi" style="shape=partialRectangle;connectable=0;fillColor=none;top=0;left=0;bottom=0;right=0;align=left;spacingLeft=6;overflow=hidden;" vertex="1" parent="129">
                    <mxGeometry x="30" width="150" height="30" as="geometry">
                        <mxRectangle width="150" height="30" as="alternateBounds"/>
                    </mxGeometry>
                </mxCell>
                <mxCell id="189" style="edgeStyle=none;html=1;exitX=0;exitY=0.5;exitDx=0;exitDy=0;entryX=1;entryY=0.5;entryDx=0;entryDy=0;" edge="1" parent="1" source="137" target="140">
                    <mxGeometry relative="1" as="geometry"/>
                </mxCell>
                <mxCell id="190" style="edgeStyle=none;html=1;exitX=1;exitY=0.5;exitDx=0;exitDy=0;" edge="1" parent="1" source="84" target="120">
                    <mxGeometry relative="1" as="geometry"/>
                </mxCell>
                <mxCell id="194" value="1 = user dah isi&lt;br&gt;&lt;div style=&quot;text-align: left;&quot;&gt;&lt;span style=&quot;background-color: initial;&quot;&gt;2 = pegawai dah isi&lt;/span&gt;&lt;/div&gt;&lt;div style=&quot;text-align: left;&quot;&gt;&lt;span style=&quot;background-color: initial;&quot;&gt;3 = siap diselengara&amp;nbsp;&lt;/span&gt;&lt;/div&gt;" style="rounded=1;whiteSpace=wrap;html=1;fillColor=#FFFFFF;" vertex="1" parent="1">
                    <mxGeometry x="-240" y="575" width="120" height="60" as="geometry"/>
                </mxCell>
                <mxCell id="195" style="edgeStyle=none;html=1;exitX=0;exitY=0.5;exitDx=0;exitDy=0;entryX=1;entryY=0.5;entryDx=0;entryDy=0;" edge="1" parent="1" source="73" target="194">
                    <mxGeometry relative="1" as="geometry"/>
                </mxCell>
            </root>
        </mxGraphModel>
    </diagram>
</mxfile>